<?xml version="1.0" encoding="UTF-8"?>
<svg id="Capa_1" data-name="Capa 1" xmlns="http://www.w3.org/2000/svg" viewBox="0 0 314.28 140.1">
  <g>
    <g>
      <path d="M24.76,19.89l-9.14,21.26c-.44,1.02.31,2.16,1.42,2.16h.07c.62,0,1.18-.37,1.42-.94l7.67-17.85c.11-.25.46-.25.56,0l7.67,17.85c.24.57.8.94,1.42.94h.03c1.11,0,1.86-1.14,1.42-2.16l-9.14-21.26c-.24-.57-.8-.94-1.42-.94h-.57c-.62,0-1.18.37-1.42.94Z" fill="#1d1d1b"/>
      <path d="M99.52,19.89l-9.14,21.26c-.44,1.02.31,2.16,1.42,2.16h.07c.62,0,1.18-.37,1.42-.94l7.67-17.85c.11-.25.46-.25.56,0l7.67,17.85c.24.57.8.94,1.42.94h.03c1.11,0,1.86-1.14,1.42-2.16l-9.14-21.26c-.24-.57-.8-.94-1.42-.94h-.57c-.62,0-1.18.37-1.42.94Z" fill="#1d1d1b"/>
      <rect x="40.72" y="24.05" width="3.14" height="19.25" rx="1.55" ry="1.55" fill="#1d1d1b"/>
      <path d="M63.01,20.7c-1.62-1.16-3.65-1.75-6.04-1.75h-7.09c-.85,0-1.55.69-1.55,1.55v.05c0,.85.69,1.55,1.55,1.55h7.09c1.66,0,3.02.37,4.17,1.13,1.15.78,2.03,1.84,2.63,3.18.63,1.41.95,3,.95,4.73s-.32,3.32-.95,4.73c-.59,1.32-1.45,2.35-2.62,3.14-1.19.78-2.56,1.16-4.18,1.16h-4.04c-.85,0-1.55-.69-1.55-1.55v-7.62c0-.85-.69-1.55-1.55-1.55h0c-.85,0-1.55.69-1.55,1.55v8.69c0,2,1.63,3.62,3.63,3.62h5.05c2.36,0,4.39-.6,6.04-1.78,1.63-1.17,2.85-2.69,3.65-4.53.8-1.84,1.2-3.81,1.2-5.86s-.4-4.06-1.2-5.9c-.8-1.84-2.03-3.36-3.65-4.53Z" fill="#1d1d1b"/>
      <rect x="70.41" y="29.56" width="15.29" height="3.14" rx="1.55" ry="1.55" fill="#1d1d1b"/>
      <rect x="70.41" y="40.16" width="17.54" height="3.14" rx="1.55" ry="1.55" fill="#1d1d1b"/>
      <rect x="70.41" y="18.95" width="17.22" height="3.14" rx="1.55" ry="1.55" fill="#1d1d1b"/>
    </g>
    <circle cx="42.29" cy="20.76" r="1.87" fill="#d61f52"/>
  </g>
  <g>
    <circle cx="106.2" cy="90.05" r="5.48" fill="#d60b52"/>
    <circle cx="273.79" cy="90.05" r="5.48" fill="#d60b52"/>
    <g>
      <path d="M288.31,57.58c-4.76-3.42-10.74-5.15-17.78-5.15h-20.89c-2.52,0-4.56,2.04-4.56,4.56v.14c0,2.52,2.04,4.56,4.56,4.56h20.89c4.88,0,8.9,1.09,12.29,3.32,3.38,2.28,5.99,5.43,7.74,9.35,1.85,4.14,2.79,8.83,2.79,13.93s-.94,9.79-2.79,13.93c-1.73,3.89-4.27,6.91-7.71,9.24-3.5,2.31-7.53,3.43-12.31,3.43h-11.9c-2.52,0-4.56-2.04-4.56-4.56v-22.43c0-2.52-2.04-4.56-4.56-4.56h0c-2.52,0-4.56,2.04-4.56,4.56l.02,25.58c0,5.89,4.78,10.66,10.67,10.66h14.88c6.94,0,12.93-1.76,17.78-5.24,4.79-3.43,8.41-7.92,10.76-13.34,2.35-5.41,3.54-11.22,3.54-17.27s-1.19-11.95-3.54-17.37c-2.35-5.42-5.97-9.91-10.76-13.34Z" fill="#1d1d1b"/>
      <g>
        <path d="M195.58,61.52s.04,0,.07,0h18.06c4.84,0,8.57.86,11.1,2.55,2.09,1.56,3.15,4.47,3.15,8.66s-1.04,7-3.05,8.46c-2.43,1.7-6.03,2.56-10.72,2.56h-18.56s-.02,0-.03,0-.02,0-.03,0h-.58v.04c-2.22.3-3.93,2.2-3.93,4.5s1.84,4.34,4.18,4.53v.02h.33s.02,0,.03,0,.02,0,.03,0h14.01c2.99,0,5.35.69,7.22,2.12,1.89,1.43,4.55,5.95,7.92,13.41,2.72,6.03,4.57,10.2,5.64,12.61.58,1.84,2.3,3.18,4.34,3.18,2.51,0,4.54-2.03,4.54-4.54,0-.48-.08-.94-.21-1.38l.03-.08c-.88-2.04-2.15-4.66-4.86-10.72-2.88-6.45-5.07-10.89-6.7-13.58l-.06-.1c-.61-.91-1.2-1.73-1.78-2.45,2.53-.99,4.78-2.5,6.74-4.52,3.05-3.28,4.6-8,4.6-14.04,0-7.23-2.21-12.55-6.61-15.81-4.14-2.97-9.77-4.48-16.72-4.48h-18.4,0c-2.38.16-4.26,2.13-4.26,4.54s2.03,4.54,4.54,4.54Z" fill="#1d1d1b"/>
        <path d="M131.79,118.14h.01c-.15.46-.24.95-.24,1.46,0,2.51,2.03,4.54,4.54,4.54,1.87,0,3.47-1.13,4.17-2.74h0s23.51-54.79,23.51-54.79l23.33,54.27c.55,1.88,2.29,3.26,4.36,3.26,2.51,0,4.54-2.03,4.54-4.54,0-.4-.06-.78-.15-1.15h.04s-.13-.33-.13-.33c-.08-.23-.17-.45-.28-.66l-26.33-61.23c-.08-.23-.18-.45-.29-.67l-.11-.26h-.03c-.99-1.72-2.85-2.88-4.98-2.88s-4.06,1.2-5.04,2.98h-.05s-26.71,62.35-26.71,62.35c-.02.04-.04.09-.06.13l-.11.25Z" fill="#1d1d1b"/>
        <path d="M75.96,58.43h-.01c.15-.46.24-.95.24-1.46,0-2.51-2.03-4.54-4.54-4.54-1.87,0-3.47,1.13-4.17,2.74h0s-23.51,54.79-23.51,54.79l-23.33-54.27c-.55-1.88-2.29-3.26-4.36-3.26-2.51,0-4.54,2.03-4.54,4.54,0,.4.06.78.15,1.15h-.04s.13.33.13.33c.08.23.17.45.28.66l26.33,61.23c.08.23.18.45.29.67l.11.26h.03c.99,1.72,2.85,2.88,4.98,2.88s4.06-1.2,5.04-2.98h.05s26.71-62.35,26.71-62.35c.02-.04.04-.09.06-.13l.11-.25Z" fill="#1d1d1b"/>
        <path d="M81.24,113.06c5.82,7.25,14.14,11.08,24.07,11.08,8.54,0,16.18-3.05,21.84-8.63,1.1-.83,1.81-2.14,1.81-3.63,0-2.51-2.03-4.54-4.54-4.54-1.12,0-2.15.41-2.94,1.09-.03,0-.05-.01-.06,0-4,4.4-9.41,6.63-16.11,6.63-13.96,0-22.98-10.51-22.98-26.77s9.02-26.77,22.98-26.77c6.38,0,11.59,2.03,15.53,6.03.83,1.03,2.11,1.69,3.53,1.69,2.51,0,4.54-2.03,4.54-4.54,0-.93-.28-1.8-.77-2.52.01-.03.01-.06,0-.08-.08-.09-.16-.17-.24-.25-.17-.21-.36-.4-.56-.58-5.67-5.71-13.4-8.83-22.04-8.83-9.92,0-18.24,3.83-24.07,11.08-5.16,6.42-8,15.22-8,24.77s2.84,18.35,8,24.77Z" fill="#1d1d1b"/>
      </g>
    </g>
  </g>
</svg>