<?xml version="1.0" encoding="UTF-8"?>
<svg id="Capa_1" data-name="Capa 1" xmlns="http://www.w3.org/2000/svg" viewBox="0 0 170.08 170.08">
  <rect x="1.15" y="2.98" width="168.1" height="164.12" rx="46.93" ry="46.93" fill="#d60b52"/>
  <path d="M63.88,98.35h-14.13c-4.42,0-8.01,3.59-8.01,8.01v14.13c0,4.42,3.59,8.01,8.01,8.01h14.13c4.42,0,8.01-3.59,8.01-8.01v-14.13c0-4.42-3.59-8.01-8.01-8.01ZM64.51,120.49c0,.35-.28.63-.63.63h-14.13c-.35,0-.63-.28-.63-.63v-14.13c0-.35.28-.63.63-.63h14.13c.35,0,.63.28.63.63v14.13Z" fill="#fff"/>
  <path d="M120.65,41.58h-14.12c-4.42,0-8.01,3.59-8.01,8.01v14.13c0,4.42,3.59,8.01,8.01,8.01h14.12c4.42,0,8.01-3.59,8.01-8.01v-14.13c0-4.42-3.59-8.01-8.01-8.01ZM121.28,63.72c0,.35-.28.63-.63.63h-14.12c-.35,0-.63-.28-.63-.63v-14.13c0-.35.28-.63.63-.63h14.12c.35,0,.63.28.63.63v14.13Z" fill="#fff"/>
  <circle cx="85.21" cy="48.96" r="3.69" fill="#fff"/>
  <circle cx="85.21" cy="64.35" r="3.69" fill="#fff"/>
  <circle cx="64.51" cy="85.7" r="3.69" fill="#fff"/>
  <circle cx="49.13" cy="85.7" r="3.69" fill="#fff"/>
  <path d="M72.85,76.11c2.64-2.64,6.92-2.64,9.55,0,1.45,1.45,1.96,3.02,1.96,5.27v6.25s-3.98-.02-6.24-.02-3.83-.51-5.27-1.95c-2.64-2.64-2.64-6.92,0-9.55Z" fill="#fff"/>
  <path d="M78.71,94.98c-1.29-1.29-1.29-3.38,0-4.67,1.29-1.29,3.38-1.29,4.67,0,1.29,1.29,1.29,3.38,0,4.67-1.29,1.29-3.38,1.29-4.67,0Z" fill="#fff"/>
  <path d="M88.9,121.37c0,2.06-1.67,3.73-3.73,3.73s-3.65-1.63-3.65-3.65v-13.71c0-2.06,1.67-3.74,3.74-3.74h.01c2,0,3.63,1.62,3.63,3.63v13.73Z" fill="#fff"/>
  <path d="M91.7,94.98c-1.29,1.29-3.38,1.29-4.67,0-1.29-1.29-1.29-3.38,0-4.67,1.29-1.29,3.38-1.29,4.67,0,1.29,1.29,1.29,3.38,0,4.67Z" fill="#fff"/>
  <path d="M92.29,87.62c-2.26,0-6.24.02-6.24.02v-6.25c0-2.25.51-3.83,1.96-5.27,2.64-2.64,6.92-2.64,9.55,0,2.64,2.64,2.64,6.92,0,9.55-1.45,1.45-3.02,1.95-5.27,1.95Z" fill="#fff"/>
  <circle cx="121.28" cy="121.12" r="3.69" fill="#fff"/>
  <path d="M128.41,102.21c-.01,1.95-1.6,3.52-3.55,3.52h-18.33c-.35,0-.63.28-.63.63v18.49c0,2.01-1.63,3.64-3.64,3.64h-.18c-1.96,0-3.55-1.59-3.55-3.55v-18.58c0-4.42,3.59-8.01,8.01-8.01h18.29c1.99,0,3.6,1.61,3.59,3.6,0,.09,0,.18,0,.26Z" fill="#fff"/>
  <circle cx="49" cy="49.66" r="3.69" fill="#fff"/>
  <path d="M41.87,68.57c.01-1.95,1.6-3.52,3.55-3.52h18.33c.35,0,.63-.28.63-.63v-18.49c0-2.01,1.63-3.64,3.64-3.64h.18c1.96,0,3.55,1.59,3.55,3.55v18.58c0,4.42-3.59,8.01-8.01,8.01h-18.29c-1.99,0-3.6-1.61-3.59-3.6,0-.09,0-.18,0-.26Z" fill="#fff"/>
  <circle cx="105.9" cy="85.7" r="3.69" fill="#fff"/>
  <circle cx="121.28" cy="85.7" r="3.69" fill="#fff"/>
</svg>